<?xml version="1.0" encoding="iso-8859-1"?>
<!-- Generator: Adobe Illustrator 19.0.0, SVG Export Plug-In . SVG Version: 6.00 Build 0)  -->
<svg version="1.1" id="Layer_1" xmlns="http://www.w3.org/2000/svg" xmlns:xlink="http://www.w3.org/1999/xlink" x="0px" y="0px"
	 viewBox="0 0 472.647 472.647" style="enable-background:new 0 0 472.647 472.647;" xml:space="preserve">
<g>
	<g>
		<polygon points="256.016,0.032 256.016,68.932 315.093,68.932 315.093,88.625 256.016,88.625 256.016,147.702 305.247,147.702 
			305.247,167.394 256.016,167.394 256.016,226.471 315.093,226.471 315.093,246.163 256.016,246.163 256.016,305.24 
			305.247,305.24 305.247,324.932 256.016,324.932 256.016,384.009 315.093,384.009 315.093,403.702 256.016,403.702 
			256.016,472.647 384.016,472.647 384.016,0.032 		"/>
	</g>
</g>
<g>
	<g>
		<path d="M176.853,137.977c23.828-32.394-3.643-68.824-4.825-70.4c-17.231-22.351-12.209-44.308-9.255-52.775
			c1.575-4.431,0.197-9.255-3.446-12.209c-3.742-3.051-8.862-3.446-12.898-0.985C85.874,37.153,86.662,87.072,92.471,113.657
			c2.855,13.194,9.551,24.222,19.102,31.705c-8.514,8.355-14.424,22.194-18.142,41.725h89.597
			c-3.424-18.004-8.735-31.109-16.218-39.559C170.65,144.967,173.997,141.719,176.853,137.977z"/>
	</g>
</g>
<g>
	<g>
		<path d="M185.763,206.779H90.65c-1.305,12.881-2.018,27.402-2.018,44.133c0,36.529,8.665,221.735,49.526,221.735
			c45.883,0,49.625-219.471,49.625-221.735C187.782,234.188,187.069,219.66,185.763,206.779z"/>
	</g>
</g>
<g>
</g>
<g>
</g>
<g>
</g>
<g>
</g>
<g>
</g>
<g>
</g>
<g>
</g>
<g>
</g>
<g>
</g>
<g>
</g>
<g>
</g>
<g>
</g>
<g>
</g>
<g>
</g>
<g>
</g>
</svg>
